<?xml version="1.0" standalone="no"?>
<!DOCTYPE svg PUBLIC "-//W3C//DTD SVG 20010904//EN"
 "http://www.w3.org/TR/2001/REC-SVG-20010904/DTD/svg10.dtd">
<svg version="1.0" xmlns="http://www.w3.org/2000/svg"
 width="500.000000pt" height="500.000000pt" viewBox="0 0 500.000000 500.000000"
 preserveAspectRatio="xMidYMid meet">

<g transform="translate(0.000000,500.000000) scale(0.100000,-0.100000)"
fill="#000000" stroke="none">
<path d="M2990 2773 c-14 -2 -32 -7 -40 -10 -8 -3 -26 -6 -40 -7 -19 -1 -27
-9 -35 -33 -11 -40 -25 -42 -47 -5 -22 35 -24 8 -3 -41 8 -20 15 -54 15 -76 0
-22 7 -46 15 -55 8 -8 18 -31 21 -52 7 -47 21 -84 39 -104 7 -8 20 -35 28 -60
14 -40 16 -42 17 -16 0 16 3 26 7 22 7 -7 8 -12 11 -96 2 -44 2 -44 18 -22 9
13 14 32 11 42 -3 12 0 17 8 14 19 -8 49 49 86 161 28 85 33 115 33 200 1 80
-3 105 -16 125 -14 19 -18 21 -18 7 0 -21 -9 -21 -34 -2 -20 15 -29 16 -76 8z
m52 -278 c-2 -14 -8 -28 -13 -31 -5 -3 -9 -16 -9 -30 0 -27 -38 -71 -50 -57
-4 4 -11 24 -15 43 -5 27 -4 31 5 20 8 -12 10 -6 8 25 -2 31 1 40 15 43 10 2
17 -3 17 -12 0 -9 5 -16 10 -16 6 0 9 3 9 8 -3 20 2 32 15 32 9 0 12 -8 8 -25z"/>
<path d="M720 2602 c0 -11 7 -18 20 -18 23 0 25 7 8 24 -17 17 -28 15 -28 -6z"/>
<path d="M448 2504 c2 -71 -1 -110 -9 -120 -10 -12 1 -14 74 -14 78 0 85 2 90
21 4 17 3 19 -6 10 -6 -6 -35 -11 -65 -11 l-54 0 4 110 c3 104 2 110 -17 110
-19 0 -20 -6 -17 -106z"/>
<path d="M888 2504 c2 -72 0 -110 -9 -120 -11 -13 -1 -14 76 -12 65 2 90 7 93
17 4 11 0 12 -14 6 -35 -15 -84 -17 -99 -5 -9 8 -15 30 -15 57 l0 45 50 -4
c43 -3 50 -1 50 16 0 15 -3 16 -14 7 -8 -7 -30 -11 -48 -9 -32 3 -33 4 -33 48
l0 45 43 3 c24 2 50 -2 58 -9 11 -9 14 -8 14 5 0 13 -13 16 -77 16 l-78 0 3
-106z"/>
<path d="M1176 2597 c-12 -9 -17 -23 -14 -47 2 -29 11 -40 52 -67 68 -44 77
-60 50 -87 -21 -22 -60 -20 -84 4 -20 20 -20 20 -20 0 0 -14 9 -21 34 -25 51
-10 77 -3 99 27 27 36 14 61 -56 108 -39 27 -52 42 -52 60 0 42 78 39 95 -3 8
-20 9 -20 9 8 1 29 -1 30 -47 33 -28 1 -55 -3 -66 -11z"/>
<path d="M1420 2588 c-34 -36 -22 -62 49 -107 27 -17 51 -40 54 -50 17 -65
-77 -70 -111 -6 -10 18 -11 16 -12 -15 l0 -35 56 -3 c66 -3 94 15 94 60 0 29
-16 48 -80 90 -24 17 -35 31 -35 48 0 21 6 26 35 31 l35 6 -32 2 c-21 1 -39
-6 -53 -21z"/>
<path d="M1678 2504 c2 -71 -1 -110 -9 -120 -10 -12 2 -14 80 -14 73 0 91 3
91 14 0 12 -6 13 -29 5 -16 -6 -42 -9 -58 -7 -26 3 -28 6 -31 57 l-3 53 45 -4
c30 -2 46 1 46 8 0 8 -15 10 -45 6 l-45 -5 0 52 0 51 43 0 c24 0 48 -5 55 -12
9 -9 12 -8 12 5 0 15 -11 17 -77 17 l-78 0 3 -106z"/>
<path d="M1960 2606 c0 -11 29 -57 35 -56 6 1 30 -23 133 -140 l31 -35 3 118
c2 73 -1 117 -7 117 -6 0 -9 -34 -7 -87 l3 -88 -43 45 c-24 25 -60 65 -81 88
-21 23 -44 42 -52 42 -8 0 -15 -2 -15 -4z"/>
<path d="M2354 2600 c-35 -14 -64 -64 -64 -109 0 -49 22 -86 61 -107 30 -15
95 -19 103 -6 3 5 -8 7 -23 4 -92 -13 -144 110 -80 191 14 19 31 27 62 30 l42
4 -40 1 c-22 0 -50 -3 -61 -8z"/>
<path d="M2620 2591 c5 -11 10 -57 10 -102 0 -63 -4 -87 -17 -101 -15 -17 -13
-18 75 -18 51 0 92 4 92 9 0 5 3 18 6 28 6 16 5 16 -8 -1 -11 -14 -28 -20 -64
-20 l-49 -1 -5 48 c-4 26 -4 50 -1 52 2 3 24 5 48 5 24 0 43 4 43 8 0 5 -21 8
-47 8 -43 -1 -47 1 -46 22 3 77 0 72 46 72 24 0 48 -5 55 -12 9 -9 12 -8 12 5
0 15 -11 17 -80 17 -77 0 -80 -1 -70 -19z"/>
<path d="M3190 2593 c6 -10 30 -65 54 -122 l43 -103 12 32 c13 40 14 43 2 36
-9 -6 -71 137 -71 162 0 6 -11 12 -25 12 -21 0 -24 -3 -15 -17z"/>
<path d="M3351 2593 c1 -10 -2 -29 -6 -43 -5 -19 -1 -17 14 10 24 42 25 50 7
50 -8 0 -15 -8 -15 -17z"/>
<path d="M3510 2496 c0 -82 -4 -116 -12 -119 -7 -3 26 -6 74 -6 77 -1 89 1 98
18 13 25 13 42 -1 19 -11 -20 -68 -33 -104 -24 -24 6 -26 10 -23 54 l3 47 48
0 c39 0 47 3 47 19 0 15 -3 16 -14 7 -8 -7 -30 -11 -48 -9 -32 3 -33 5 -36 51
l-3 47 48 0 c27 0 54 -5 61 -12 9 -9 12 -8 12 5 0 14 -11 17 -75 17 l-75 0 0
-114z"/>
<path d="M3798 2503 c3 -93 1 -109 -14 -120 -15 -11 -11 -13 32 -13 37 1 45 3
32 10 -14 9 -17 27 -17 108 0 53 5 103 11 109 8 10 4 13 -18 13 l-29 0 3 -107z"/>
<path d="M3895 2587 c34 -29 29 -67 -10 -85 l-25 -12 46 -60 c40 -51 52 -60
78 -60 30 1 30 1 9 13 -12 7 -38 31 -58 55 l-37 43 26 20 c17 13 26 30 26 49
0 31 -13 44 -54 54 l-28 7 27 -24z"/>
<path d="M4097 2603 c-4 -3 -7 -13 -7 -20 0 -12 3 -11 16 1 8 9 29 16 45 16
l29 0 0 -105 c0 -88 -3 -106 -17 -114 -14 -8 -7 -10 30 -11 44 0 47 1 32 16
-13 13 -15 35 -13 113 3 95 3 96 29 99 15 2 34 -4 43 -13 15 -15 16 -15 16 4
0 20 -6 21 -98 21 -54 0 -102 -3 -105 -7z"/>
<path d="M4418 2503 c3 -93 1 -109 -14 -120 -15 -11 -3 -13 73 -13 74 0 92 3
97 16 9 23 8 24 -24 8 -16 -9 -44 -14 -62 -12 -32 3 -33 4 -36 57 l-3 53 50
-3 c44 -4 51 -2 51 15 0 15 -3 16 -14 7 -8 -7 -30 -11 -48 -9 -32 3 -33 5 -36
51 l-3 47 48 0 c27 0 54 -5 61 -12 9 -9 12 -8 12 5 0 15 -11 17 -77 17 l-78 0
3 -107z"/>
<path d="M1521 2583 c7 -10 15 -20 16 -22 2 -2 3 5 3 17 0 14 -6 22 -16 22
-14 0 -15 -3 -3 -17z"/>
<path d="M2476 2578 c10 -13 20 -25 21 -27 2 -2 3 8 3 22 0 21 -5 27 -22 27
-21 0 -21 0 -2 -22z"/>
<path d="M3321 2489 c-6 -18 -9 -34 -7 -36 2 -2 9 10 15 28 6 18 9 34 7 36 -2
2 -9 -10 -15 -28z"/>
<path d="M1968 2388 c-17 -17 -17 -18 13 -18 28 0 30 2 18 18 -7 9 -13 17 -14
18 0 0 -8 -8 -17 -18z"/>
</g>
</svg>
