<?xml version="1.0" standalone="no"?>
<!DOCTYPE svg PUBLIC "-//W3C//DTD SVG 20010904//EN"
 "http://www.w3.org/TR/2001/REC-SVG-20010904/DTD/svg10.dtd">
<svg version="1.0" xmlns="http://www.w3.org/2000/svg"
 width="500.000000pt" height="500.000000pt" viewBox="0 0 500.000000 500.000000"
 preserveAspectRatio="xMidYMid meet">

<g transform="translate(0.000000,500.000000) scale(0.100000,-0.100000)"
fill="#000000" stroke="none">
<path d="M500 2445 c0 -8 9 -15 20 -15 11 0 20 7 20 15 0 8 -9 15 -20 15 -11
0 -20 -7 -20 -15z"/>
<path d="M1020 2451 c-14 -4 -31 -19 -39 -33 -20 -36 -5 -63 62 -108 66 -45
74 -79 25 -104 l-33 -17 30 6 c95 21 85 104 -18 160 -20 11 -39 27 -42 36 -7
22 4 49 20 49 8 0 17 5 20 10 3 6 5 10 3 9 -2 -1 -14 -4 -28 -8z"/>
<path d="M1282 2449 c-26 -10 -43 -48 -35 -78 3 -11 22 -31 42 -43 89 -53 107
-98 49 -123 -26 -11 -28 -14 -12 -15 12 0 33 9 48 21 51 40 28 98 -57 144 -48
25 -57 53 -27 77 27 22 24 29 -8 17z"/>
<path d="M2335 2449 c4 -5 13 -9 21 -9 8 0 26 -11 39 -25 l25 -24 0 30 c0 17
-4 28 -10 24 -5 -3 -26 -2 -45 4 -21 5 -33 6 -30 0z"/>
<path d="M208 2438 c16 -16 16 -210 0 -226 -9 -9 8 -12 79 -12 74 0 92 3 97
16 9 23 8 24 -24 8 -16 -9 -47 -14 -67 -12 l-38 3 -3 109 c-2 81 1 112 10 118
8 5 -2 8 -26 8 -31 0 -37 -3 -28 -12z"/>
<path d="M678 2438 c16 -16 16 -210 0 -226 -9 -9 9 -12 84 -12 87 0 96 2 101
20 5 18 3 18 -18 4 -15 -10 -41 -14 -72 -12 l-48 3 0 55 0 55 38 3 c21 2 45
-2 53 -9 12 -9 14 -7 13 17 0 16 -3 23 -6 17 -3 -8 -24 -13 -54 -13 l-49 0 0
50 0 50 55 0 c41 0 56 -4 64 -17 9 -16 10 -16 11 5 0 21 -3 22 -92 22 -72 0
-89 -3 -80 -12z"/>
<path d="M1076 2438 c12 -5 27 -20 32 -32 10 -20 11 -19 11 9 1 27 -2 30 -32
32 -29 1 -30 0 -11 -9z"/>
<path d="M1346 2438 c12 -5 27 -20 32 -32 10 -20 11 -19 11 9 1 27 -2 30 -32
32 -29 1 -30 0 -11 -9z"/>
<path d="M1529 2436 c8 -10 11 -50 9 -125 l-3 -111 86 0 c70 0 88 3 93 16 9
25 8 26 -18 9 -16 -11 -41 -15 -73 -13 l-48 3 0 55 0 55 38 3 c21 2 45 -2 53
-9 11 -9 14 -8 14 7 0 17 -7 19 -55 16 l-55 -4 0 51 0 51 53 0 c29 0 58 -5 65
-12 9 -9 12 -8 12 5 0 15 -12 17 -91 17 -78 0 -90 -2 -80 -14z"/>
<path d="M1843 2432 c13 -15 17 -39 17 -113 0 -61 -4 -99 -12 -107 -9 -9 -5
-12 18 -11 16 0 23 3 17 6 -9 3 -13 33 -13 101 l1 97 57 -65 c31 -35 74 -83
94 -105 l37 -40 3 128 c2 80 -1 127 -7 127 -6 0 -9 -34 -7 -90 2 -49 0 -90 -5
-90 -9 0 -32 24 -112 118 -40 45 -61 62 -79 62 -24 0 -24 -1 -9 -18z"/>
<path d="M2234 2417 c-47 -43 -57 -108 -26 -159 24 -38 50 -54 102 -63 35 -6
35 -6 -10 17 -56 29 -72 58 -67 125 4 55 24 88 62 104 19 7 19 8 -3 8 -12 1
-38 -14 -58 -32z"/>
<path d="M2545 2325 l0 -125 86 0 c70 0 88 3 93 16 9 23 7 31 -4 14 -6 -10
-27 -15 -67 -15 l-58 0 -3 59 -3 59 50 -5 c28 -3 51 -1 51 3 0 5 -22 9 -50 9
l-50 0 0 50 0 50 46 0 c25 0 55 -5 66 -11 16 -9 19 -8 16 3 -3 9 -29 14 -89
16 l-84 3 0 -126z"/>
<path d="M3324 2428 c8 -13 31 -66 51 -118 21 -52 41 -99 45 -103 4 -4 13 7
20 25 6 18 21 55 32 81 11 27 17 52 13 55 -3 3 -8 -3 -11 -13 -3 -11 -13 -37
-22 -59 l-17 -38 -33 78 c-18 44 -32 87 -32 97 0 12 -8 17 -30 17 -29 0 -30
-1 -16 -22z"/>
<path d="M3494 2412 l-2 -37 12 28 c7 16 19 33 27 38 10 6 8 9 -11 9 -22 0
-25 -5 -26 -38z"/>
<path d="M3660 2435 c8 -10 11 -48 8 -125 l-3 -110 88 0 c71 0 87 3 87 15 0
12 -4 13 -19 5 -28 -15 -111 -13 -112 3 -1 6 -2 32 -3 57 -1 44 0 45 31 48 18
2 41 -2 53 -8 17 -9 20 -8 20 7 0 15 -9 18 -52 18 l-53 0 0 45 0 45 48 3 c27
2 55 -2 63 -9 11 -9 14 -8 14 5 0 14 -14 16 -91 16 -79 0 -90 -2 -79 -15z"/>
<path d="M3968 2438 c16 -16 16 -210 0 -226 -9 -9 -4 -12 26 -12 32 0 37 2 27
14 -17 21 -10 100 9 103 8 1 35 -25 60 -57 34 -45 51 -59 71 -60 24 0 23 2
-23 52 -46 50 -60 78 -38 78 16 0 50 38 50 55 0 9 -11 27 -25 40 -21 22 -33
25 -97 25 -56 0 -69 -3 -60 -12z m122 -18 c11 -11 20 -27 20 -35 0 -25 -38
-55 -70 -55 -29 0 -30 1 -30 48 0 27 3 52 7 55 13 14 54 6 73 -13z"/>
<path d="M4290 2423 l0 -27 16 22 c11 15 25 22 50 22 l34 0 0 -108 c0 -71 -4
-112 -12 -120 -9 -9 -3 -12 28 -11 21 0 33 3 27 6 -9 3 -13 37 -13 119 l0 114
26 0 c14 0 34 -5 45 -10 15 -8 19 -7 19 5 0 13 -18 15 -110 15 l-110 0 0 -27z"/>
<path d="M4635 2325 l0 -125 86 0 c84 0 86 1 98 28 l13 27 -22 -23 c-18 -19
-30 -22 -73 -20 l-52 3 0 55 c0 55 0 55 32 58 18 2 41 -2 52 -7 16 -9 20 -8
18 6 -1 15 -9 17 -54 15 l-53 -4 0 51 0 51 46 0 c25 0 54 -5 65 -10 15 -8 19
-7 19 5 0 12 -15 15 -87 15 l-88 0 0 -125z"/>
<path d="M970 2239 c0 -34 2 -36 33 -36 17 -1 26 1 19 4 -8 3 -22 19 -33 37
l-19 31 0 -36z"/>
<path d="M1250 2224 c0 -14 8 -20 27 -22 14 -1 25 -1 22 1 -2 1 -14 11 -26 21
-23 19 -23 19 -23 0z"/>
<path d="M2360 2210 c-13 -8 -13 -10 2 -10 9 0 20 5 23 10 8 13 -5 13 -25 0z"/>
</g>
</svg>
