<svg width="266" height="48" viewBox="0 0 266 48" fill="none" xmlns="http://www.w3.org/2000/svg">
<path d="M214.606 32.8745L213.526 32.1722C212.735 31.6491 211.914 31.156 211.077 30.6628C207.532 28.5408 203.881 26.359 203.455 22.2793H210.636C216.417 22.2793 222.229 18.9318 222.229 11.4598C222.229 0.789863 211.442 0.25188 209.282 0.25188H193.322V47.7886H198.191V1.49223H207.06C213.922 1.49223 217.041 6.64789 217.041 11.4449C217.041 16.0626 214.15 21.024 207.806 21.024H202.131V21.3976C202.131 29.0339 206.893 32.6354 211.518 36.1323C215.535 39.1659 219.323 42.0352 219.277 47.3851V47.7587H224.572V47.3851C224.587 39.3453 219.521 36.0576 214.606 32.8745Z" fill="#074E59"/>
<path d="M260.097 8.27575C257.024 4.67426 251.532 0.35545 242.814 0.235898H230.917V47.7876H241.46C257.404 47.7876 266 35.3243 266 23.5933C266 18.333 263.794 12.6095 260.097 8.27575ZM235.785 1.49119H241.992C249.63 1.49119 260.219 9.08272 260.219 23.3094C260.219 34.7266 253.342 46.5323 241.825 46.5323H235.785V1.49119Z" fill="#074E59"/>
<path d="M167.293 0.235898V0.609497C167.293 4.94324 166.562 9.21722 165.117 13.3268L153.022 47.7876H154.422L159.899 31.8573L160.203 31.5285H176.893L177.182 31.8274L183.267 47.8025H188.623L169.818 0.265787H167.293V0.235898ZM176.558 30.2882H160.492L167.947 9.06778L176.558 30.2882Z" fill="#074E59"/>
<path d="M79.2948 0C79.2492 0 79.2188 0 79.1731 0C72.7528 0 66.6977 2.45081 62.1183 6.934C57.4628 11.477 54.8916 17.5143 54.8764 23.9701C54.8612 30.396 57.3715 36.4184 61.9357 40.9465C66.5151 45.4745 72.6159 47.9851 79.1275 48C79.1427 48 79.1731 48 79.1883 48C85.639 48 91.7246 45.5044 96.3345 40.9763C100.959 36.4334 103.515 30.411 103.531 24.0299C103.561 10.8344 92.6831 0.0597758 79.2948 0ZM88.4232 44.5629C84.9392 45.7136 81.1813 45.6687 77.2561 44.4284C73.1179 43.1133 69.421 40.6775 66.2717 37.1806C62.6355 33.1457 60.3534 28.4832 59.471 23.2976C59.3189 22.401 59.258 21.5044 59.1972 20.787C59.182 20.5181 59.1667 20.279 59.1363 20.1295C59.1972 14.929 60.4751 11.0585 63.1528 7.93524C65.937 4.69241 69.5579 2.91408 73.9091 2.66003C74.3351 2.63014 74.7611 2.63014 75.1718 2.63014C80.2229 2.63014 84.8631 4.43836 89.2904 8.12952C93.3373 11.4919 96.2432 15.7659 97.9167 20.8169C99.3773 25.2254 99.6055 29.2752 98.5861 33.2204C97.156 38.9888 93.7177 42.8144 88.4232 44.5629Z" fill="#074E59"/>
<path d="M154.756 0.235898L144.609 39.7926L134.035 0.519837L133.959 0.235898H130.338V0.609497C130.338 3.64312 129.988 6.69169 129.303 9.63565L122.381 39.7029L111.533 0.519837L111.457 0.250845H106.011L119.247 47.5186L119.323 47.7876H123.066V47.414C123.066 43.9769 123.461 40.5248 124.237 37.1624L130.977 8.11136L141.292 47.7876H145.263V47.414C145.263 43.9769 145.704 40.5398 146.556 37.2073L156.034 0.250845H154.756V0.235898Z" fill="#074E59"/>
<path d="M0 47.7876H4.88368V19.947C11.3648 19.9918 17.7091 21.2172 23.7338 23.5784L24.2511 23.7876V18.5721H4.88368V1.62569C11.3648 1.67052 17.7091 2.89592 23.7338 5.25707L24.2511 5.45134V0.235898H0V47.7876Z" fill="#074E59"/>
<path d="M36.6817 46.4127V0.235898H31.798V47.7726H56.049V42.5572L55.5318 42.7664C49.4918 45.1425 43.1628 46.3679 36.6817 46.4127Z" fill="#074E59"/>
</svg>
